<svg width="40" height="40" xmlns="http://www.w3.org/2000/svg" xmlns:xlink="http://www.w3.org/1999/xlink"><defs><circle id="a" cx="20" cy="20" r="20"/></defs><g fill="none" fill-rule="evenodd"><mask id="b" fill="#fff"><use xlink:href="#a"/></mask><use fill="#FFB043" xlink:href="#a"/><g mask="url(#b)"><path d="M0 5.333h40v40H0z"/><path d="M0 5h40v40H0z"/><g fill-rule="nonzero"><path d="M34.704 29.682c-.296-1.21-.296-4.532 0-9.967C34.704 11.622 28.086 5 19.997 5c-8.09 0-14.708 6.622-14.708 14.715.297 5.435.297 8.758 0 9.967-.445 1.815-1.562 5.835-3.122 7.624C-.056 39.472.354 40.82.705 41.521c.35.702 1.52 1.697 4.095.585 2.574-1.112 4.069-1.8 7.111.451A14.588 14.588 0 0 0 19.997 45c2.98 0 5.76-.902 8.085-2.443 3.042-2.252 4.537-1.563 7.111-.451 2.575 1.112 3.745.117 4.096-.585.35-.702.76-2.049-1.463-4.215-1.56-1.789-2.677-5.809-3.122-7.624Z" fill="#10A0FF"/><path d="M28.133 18.843a7.828 7.828 0 1 0-15.656 0 7.828 7.828 0 0 0 15.656 0" fill="#FFF"/><path d="M22.257 21.833a3.648 3.648 0 1 1-7.296 0 3.648 3.648 0 0 1 7.296 0" fill="#263244"/></g></g></g></svg>